<svg version="1.2" xmlns="http://www.w3.org/2000/svg" viewBox="0 0 1280 360" width="1280" height="360">
	<title>Yeni Proje</title>
	<style>
		.s0 { paint-order:stroke fill markers;stroke: #000000;stroke-width: 20;stroke-linejoin: round;;fill: #289103 } 
	</style>
	<path id="&gt; PE PARSER" class="s0" aria-label="&gt; PE PARSER"  d="m61.7 163.9h-15.6v-15.7h15.6zm15.6 0h-15.6v-15.6h15.6zm15.6 15.6h-15.6v-15.6h15.6zm15.7 0h-15.7v-15.6h15.7zm15.6 15.6h-15.6v-15.6h15.6zm15.6 0h-15.6v-15.6h15.6zm-46.9 15.6h-15.6v-15.6h15.6zm15.7 0h-15.7v-15.7h15.7zm-46.9 15.7h-15.6v-15.7h15.6zm15.6 0h-15.6v-15.6h15.6zm203.1-93.7h-15.6v-15.7h15.6zm15.7 0h-15.7v-15.6h15.7zm15.6 0h-15.6v-15.6h15.6zm15.6 0h-15.6v-15.6h15.6zm-46.9 15.6h-15.6v-15.6h15.6zm62.5 0h-15.6v-15.7h15.6zm-62.5 15.7h-15.6v-15.7h15.6zm62.5 0h-15.6v-15.6h15.6zm-62.5 15.6h-15.6v-15.6h15.6zm62.5 0h-15.6v-15.6h15.6zm-62.5 15.6h-15.6v-15.6h15.6zm15.7 0h-15.7v-15.6h15.7zm15.6 0h-15.6v-15.7h15.6zm15.6 0h-15.6v-15.6h15.6zm-46.9 15.6h-15.6v-15.6h15.6zm0 15.6h-15.6v-15.6h15.6zm0 15.6h-15.6v-15.6h15.6zm109.4-109.4h-15.6v-15.6h15.6zm15.6 0h-15.6v-15.6h15.6zm15.7 0h-15.7v-15.6h15.7zm15.6 0h-15.6v-15.7h15.6zm15.6 0h-15.6v-15.6h15.6zm-62.5 15.6h-15.6v-15.6h15.6zm0 15.6h-15.6v-15.6h15.6zm0 15.6h-15.6v-15.6h15.6zm15.6 0h-15.6v-15.6h15.6zm15.7 0h-15.7v-15.6h15.7zm15.6 0h-15.6v-15.7h15.6zm-46.9 15.7h-15.6v-15.7h15.6zm0 15.7h-15.6v-15.7h15.6zm0 15.7h-15.6v-15.7h15.6zm0 15.7h-15.6v-15.7h15.6zm15.6 0h-15.6v-15.6h15.6zm15.7 0h-15.7v-15.6h15.7zm15.6 0h-15.6v-15.6h15.6zm15.6 0h-15.6v-15.7h15.6zm156.3-109.3h-15.7v-15.7h15.7zm15.6 0h-15.6v-15.6h15.6zm15.6 0h-15.6v-15.6h15.6zm15.6 0h-15.6v-15.6h15.6zm-46.8 15.6h-15.7v-15.6h15.7zm62.5 0h-15.7v-15.7h15.7zm-62.5 15.7h-15.7v-15.7h15.7zm62.5 0h-15.7v-15.6h15.7zm-62.5 15.6h-15.7v-15.6h15.7zm62.5 0h-15.7v-15.6h15.7zm-62.5 15.6h-15.7v-15.6h15.7zm15.6 0h-15.6v-15.6h15.6zm15.6 0h-15.6v-15.7h15.6zm15.6 0h-15.6v-15.6h15.6zm-46.8 15.6h-15.7v-15.6h15.7zm0 15.6h-15.7v-15.6h15.7zm0 15.6h-15.7v-15.6h15.7zm140.6-109.4h-15.6v-15.6h15.6zm15.6 0h-15.6v-15.6h15.6zm-15.6 15.6h-15.6v-15.6h15.6zm15.6 0h-15.6v-15.6h15.6zm-31.2 15.6h-15.7v-15.6h15.7zm46.8 0h-15.6v-15.7h15.6zm-46.8 15.7h-15.7v-15.7h15.7zm46.8 0h-15.6v-15.6h15.6zm-46.8 15.6h-15.7v-15.6h15.7zm15.6 0h-15.6v-15.6h15.6zm15.6 0h-15.6v-15.6h15.6zm15.6 0h-15.6v-15.7h15.6zm-62.5 15.7h-15.6v-15.7h15.6zm78.2 0h-15.7v-15.6h15.7zm-78.2 15.6h-15.6v-15.6h15.6zm78.2 0h-15.7v-15.6h15.7zm-78.2 15.6h-15.6v-15.6h15.6zm78.2 0h-15.7v-15.6h15.7zm31.2-109.4h-15.6v-15.6h15.6zm15.6 0h-15.6v-15.7h15.6zm15.7 0h-15.7v-15.6h15.7zm15.6 0h-15.6v-15.6h15.6zm-46.9 15.6h-15.6v-15.6h15.6zm62.5 0h-15.6v-15.6h15.6zm-62.5 15.6h-15.6v-15.6h15.6zm62.5 0h-15.6v-15.7h15.6zm-62.5 15.7h-15.6v-15.7h15.6zm62.5 0h-15.6v-15.6h15.6zm-62.5 15.6h-15.6v-15.6h15.6zm15.6 0h-15.6v-15.6h15.6zm15.7 0h-15.7v-15.6h15.7zm15.6 0h-15.6v-15.7h15.6zm-46.9 15.7h-15.6v-15.7h15.6zm46.9 0h-15.6v-15.6h15.6zm-46.9 15.6h-15.6v-15.6h15.6zm62.5 0h-15.6v-15.6h15.6zm-62.5 15.6h-15.6v-15.6h15.6zm78.1 0h-15.6v-15.6h15.6zm46.9-109.4h-15.6v-15.6h15.6zm15.6 0h-15.6v-15.7h15.6zm15.7 0h-15.7v-15.6h15.7zm15.6 0h-15.6v-15.6h15.6zm-62.5 15.6h-15.6v-15.6h15.6zm78.1 0h-15.6v-15.6h15.6zm-78.1 15.6h-15.6v-15.6h15.6zm15.6 15.6h-15.6v-15.6h15.6zm15.6 0h-15.6v-15.7h15.6zm15.7 15.7h-15.7v-15.7h15.7zm15.6 0h-15.6v-15.6h15.6zm15.6 15.6h-15.6v-15.6h15.6zm-78.1 15.6h-15.6v-15.6h15.6zm78.1 0h-15.6v-15.6h15.6zm-62.5 15.6h-15.6v-15.6h15.6zm15.6 0h-15.6v-15.6h15.6zm15.7 0h-15.7v-15.7h15.7zm15.6 0h-15.6v-15.6h15.6zm46.9-109.4h-15.7v-15.6h15.7zm15.6 0h-15.6v-15.6h15.6zm15.6 0h-15.6v-15.6h15.6zm15.6 0h-15.6v-15.7h15.6zm15.7 0h-15.7v-15.6h15.7zm-62.5 15.6h-15.7v-15.6h15.7zm0 15.6h-15.7v-15.6h15.7zm0 15.6h-15.7v-15.6h15.7zm15.6 0h-15.6v-15.6h15.6zm15.6 0h-15.6v-15.6h15.6zm15.6 0h-15.6v-15.7h15.6zm-46.8 15.7h-15.7v-15.7h15.7zm0 15.7h-15.7v-15.7h15.7zm0 15.7h-15.7v-15.7h15.7zm0 15.7h-15.7v-15.7h15.7zm15.6 0h-15.6v-15.6h15.6zm15.6 0h-15.6v-15.6h15.6zm15.6 0h-15.6v-15.6h15.6zm15.7 0h-15.7v-15.7h15.7zm46.8-109.3h-15.6v-15.7h15.6zm15.7 0h-15.7v-15.6h15.7zm15.6 0h-15.6v-15.6h15.6zm15.6 0h-15.6v-15.6h15.6zm-46.9 15.6h-15.6v-15.6h15.6zm62.5 0h-15.6v-15.7h15.6zm-62.5 15.7h-15.6v-15.7h15.6zm62.5 0h-15.6v-15.6h15.6zm-62.5 15.6h-15.6v-15.6h15.6zm62.5 0h-15.6v-15.6h15.6zm-62.5 15.6h-15.6v-15.6h15.6zm15.7 0h-15.7v-15.6h15.7zm15.6 0h-15.6v-15.7h15.6zm15.6 0h-15.6v-15.6h15.6zm-46.9 15.6h-15.6v-15.6h15.6zm46.9 0h-15.6v-15.6h15.6zm-46.9 15.6h-15.6v-15.6h15.6zm62.5 0h-15.6v-15.6h15.6zm-62.5 15.6h-15.6v-15.6h15.6zm78.2 0h-15.7v-15.7h15.7z"/>
</svg>